<?xml version="1.0" encoding="utf-8"?>
<!-- Generator: Adobe Illustrator 16.0.0, SVG Export Plug-In . SVG Version: 6.00 Build 0)  -->
<!DOCTYPE svg PUBLIC "-//W3C//DTD SVG 1.1//EN" "http://www.w3.org/Graphics/SVG/1.1/DTD/svg11.dtd">
<svg version="1.1" id="Layer_1" xmlns="http://www.w3.org/2000/svg" xmlns:xlink="http://www.w3.org/1999/xlink" x="0px" y="0px"
	 width="291.689px" height="51.641px" viewBox="0 0 291.689 51.641" enable-background="new 0 0 291.689 51.641"
	 xml:space="preserve">
<path fill="#FFFFFF" d="M134.637,48.854c-2.572-2.064-3.932-5.049-3.932-8.635c0-2.762,0.866-5.123,2.574-7.018
	c1.427-1.582,3.458-2.854,6.035-3.775c3.416-1.223,7.773-1.842,12.955-1.842c0,0,1.207,0,1.807,0c0-0.402,0-0.881,0-0.881
	c0-1.326-0.186-2.487-0.553-3.449c-0.336-0.886-0.836-1.625-1.482-2.198c-1.199-1.059-2.949-1.596-5.203-1.596
	c-1.258,0-2.569,0.178-3.894,0.528c-1.067,0.282-2.146,0.675-3.207,1.169c-1.815,0.845-2.963,1.703-2.975,1.711
	c-0.083,0.063-0.185,0.097-0.288,0.097c-0.032,0-0.065-0.003-0.098-0.01c-0.135-0.028-0.252-0.113-0.32-0.233l-2.787-4.934
	c-0.042-0.074-0.062-0.156-0.062-0.236c0-0.141,0.062-0.279,0.178-0.373c0.056-0.045,1.397-1.124,3.803-2.209
	c1.407-0.635,2.891-1.141,4.407-1.504c1.896-0.454,3.853-0.684,5.815-0.684c4.721,0,8.365,1.237,10.834,3.678
	c2.471,2.445,3.723,6.061,3.723,10.746v16.16c0,0.391,0.09,0.674,0.266,0.844c0.172,0.166,0.449,0.25,0.828,0.25h3.645
	c0.266,0,0.48,0.215,0.48,0.48v5.361c0,0.266-0.215,0.48-0.48,0.48h-7.219c-1.666,0-2.941-0.408-3.787-1.213
	c-0.793-0.754-1.195-1.83-1.195-3.199v-0.502c0-0.098,0.002-0.193,0.004-0.285c-0.426,0.629-0.99,1.359-1.709,2.09
	c-1.135,1.15-2.424,2.068-3.83,2.727c-1.758,0.824-3.701,1.242-5.776,1.242C139.916,51.641,136.878,50.65,134.637,48.854
	 M144.411,33.969c-1.751,0.486-3.122,1.16-4.077,2.006c-0.532,0.471-0.941,1.004-1.217,1.582c-0.297,0.627-0.448,1.33-0.448,2.09
	c0,1.514,0.554,2.916,1.561,3.947c1.101,1.127,2.644,1.723,4.463,1.723c1.387,0,2.705-0.34,3.912-1.008
	c1.119-0.619,2.121-1.504,2.979-2.629c0.801-1.051,1.459-2.309,1.9-3.637c0.434-1.303,0.664-2.678,0.664-3.973c0,0,0-0.578,0-1.023
	c-0.514,0-1.307,0-1.307,0C151.576,33.047,147.729,33.047,144.411,33.969 M264.277,50.189c-2.365-0.934-4.477-2.281-6.275-4.004
	c-1.82-1.742-3.244-3.795-4.232-6.102c-1.029-2.398-1.549-4.99-1.549-7.707c0-2.699,0.52-5.275,1.549-7.656
	c0.988-2.29,2.414-4.328,4.232-6.056c1.801-1.709,3.912-3.046,6.275-3.972c2.414-0.946,4.998-1.425,7.678-1.425
	s5.262,0.479,7.676,1.425c2.365,0.926,4.475,2.263,6.275,3.972c1.818,1.729,3.244,3.766,4.232,6.056
	c1.029,2.381,1.551,4.957,1.551,7.656c0,2.717-0.521,5.309-1.551,7.707c-0.988,2.307-2.412,4.359-4.23,6.102
	c-1.801,1.723-3.912,3.07-6.275,4.004c-2.416,0.955-4.998,1.439-7.678,1.439S266.691,51.145,264.277,50.189 M263.621,23.584
	c-1.088,1.101-1.938,2.4-2.529,3.861c-0.617,1.529-0.93,3.188-0.93,4.932c0,1.762,0.312,3.439,0.932,4.984
	c0.59,1.479,1.441,2.795,2.529,3.908c2.186,2.238,5.145,3.471,8.332,3.471c1.586,0,3.119-0.309,4.557-0.916
	c1.41-0.598,2.672-1.457,3.748-2.557c1.094-1.115,1.951-2.43,2.547-3.908c0.623-1.547,0.941-3.223,0.941-4.982
	c0-1.74-0.318-3.4-0.941-4.93c-0.596-1.461-1.451-2.76-2.545-3.862c-1.076-1.086-2.338-1.936-3.748-2.525
	c-1.438-0.601-2.973-0.906-4.559-0.906C268.766,20.154,265.805,21.372,263.621,23.584 M85.865,48.766
	c-1.647-1.07-2.938-2.506-3.835-4.264c-1.038-2.035-1.564-4.535-1.564-7.43c0,0,0-16.203,0-17.111c-0.813,0-5.595,0-5.595,0
	c-0.265,0-0.479-0.215-0.479-0.48v-5.363c0-0.265,0.214-0.479,0.479-0.479c0,0,4.921,0,5.738,0c0-0.87,0-9.459,0-9.459
	c0-0.265,0.215-0.48,0.48-0.48h6.79c0.265,0,0.479,0.215,0.479,0.48c0,0,0,8.59,0,9.459c0.856,0,8.168,0,8.168,0
	c0.265,0,0.48,0.214,0.48,0.479v5.363c0,0.265-0.215,0.48-0.48,0.48c0,0-7.312,0-8.168,0c0,0.906,0,16.468,0,16.468
	c0,3.055,0.889,5.25,2.643,6.521c1.475,1.068,3.313,1.293,4.596,1.293c0.958,0,1.585-0.068,1.591-0.068
	c0.017-0.002,0.035-0.002,0.052-0.002c0.118,0,0.232,0.041,0.321,0.121c0.102,0.092,0.16,0.221,0.16,0.357v5.793
	c0,0.238-0.175,0.441-0.412,0.475c-0.042,0.006-1.052,0.148-2.57,0.148C92.308,51.068,88.796,50.668,85.865,48.766 M230.271,50.781
	c-0.266,0-0.48-0.215-0.48-0.48V45.01c0-0.266,0.215-0.48,0.48-0.48c0,0,4.289,0,5.092,0c0-0.904,0-23.259,0-24.164
	c-0.811,0-5.445,0-5.445,0c-0.266,0-0.48-0.215-0.48-0.479v-5.293c0-0.265,0.215-0.479,0.48-0.479h12.766
	c0.266,0,0.48,0.215,0.48,0.479c0,0,0,29.006,0,29.936c0.803,0,5.162,0,5.162,0c0.266,0,0.48,0.215,0.48,0.48v5.291
	c0,0.266-0.215,0.48-0.48,0.48H230.271 M214.543,50.781c-0.266,0-0.48-0.215-0.48-0.48v-7.408c0-0.266,0.215-0.48,0.48-0.48h7.334
	c0.266,0,0.48,0.215,0.48,0.48v7.408c0,0.266-0.215,0.48-0.48,0.48H214.543 M201.848,50.781c-1.543,0-2.779-0.117-3.797-0.688
	c-1.039-0.582-1.74-1.57-2.475-2.873l0.004,0.006c0,0-7.051-12.062-7.053-12.064c-0.312-0.508-0.656-0.809-1.115-0.975
	c-0.463-0.168-1.049-0.201-1.785-0.201c0,0-1.682,0-2.342,0c0,0.842,0,9.701,0,10.543c0.777,0,4.314,0,4.314,0
	c0.266,0,0.48,0.215,0.48,0.48v5.291c0,0.266-0.215,0.48-0.48,0.48h-17.209c-0.264,0-0.479-0.215-0.479-0.48V45.01
	c0-0.266,0.215-0.48,0.479-0.48c0,0,4.361,0,5.164,0c0-0.924,0-37.354,0-38.278c-0.812,0-5.516,0-5.516,0
	c-0.266,0-0.48-0.214-0.48-0.479V0.479c0-0.265,0.215-0.479,0.48-0.479h12.766c0.266,0,0.48,0.214,0.48,0.479c0,0,0,26.397,0,27.325
	c0.754,0,4.148,0,4.516,0c0.25-0.295,5.234-6.171,6.311-7.439c-1.252,0-3.619,0-3.619,0c-0.266,0-0.479-0.215-0.479-0.479v-5.293
	c0-0.265,0.213-0.479,0.479-0.479h16.223c0.264,0,0.479,0.215,0.479,0.479v5.293c0,0.265-0.215,0.479-0.479,0.479
	c0,0-4.102,0-4.504,0c-0.268,0.313-7.824,9.144-8.373,9.787c0.199,0.141,0.377,0.295,0.459,0.369c0.645,0.584,1.283,1.41,1.9,2.459
	l6.064,10.375l-0.008-0.012c0.594,0.947,0.973,1.186,2.697,1.186h2.258c0.264,0,0.479,0.215,0.479,0.48v5.291
	c0,0.266-0.215,0.48-0.479,0.48H201.848 M102.528,50.781c-0.265,0-0.48-0.215-0.48-0.48v-5.361c0-0.266,0.215-0.48,0.48-0.48
	c0,0,4.155,0,4.952,0c0-0.922,0-23.404,0-23.404c0-0.39-0.09-0.674-0.265-0.844c-0.171-0.165-0.45-0.25-0.828-0.25h-4.502
	c-0.265,0-0.479-0.215-0.479-0.48v-5.363c0-0.265,0.215-0.479,0.479-0.479h8.148c1.721,0,2.971,0.371,3.822,1.132
	c0.877,0.786,1.303,1.953,1.303,3.567c0,0,0,2.272,0,2.283c0.246-0.502,0.517-0.988,0.811-1.455c0.749-1.19,1.637-2.234,2.639-3.103
	c2.149-1.866,4.745-2.853,7.505-2.853c0.958,0,1.83,0.143,1.867,0.149c0.231,0.039,0.4,0.239,0.4,0.473v6.865
	c0,0.147-0.068,0.287-0.183,0.377c-0.085,0.067-0.19,0.103-0.297,0.103c-0.038,0-0.076-0.005-0.113-0.014
	c-0.034-0.008-0.835-0.201-1.887-0.201c-1.753,0-3.344,0.424-4.728,1.259c-1.269,0.766-2.367,1.875-3.264,3.3
	c-0.834,1.322-1.478,2.883-1.915,4.641c-0.411,1.656-0.62,3.404-0.62,5.195c0,0,0,8.236,0,9.102c0.795,0,4.881,0,4.881,0
	c0.265,0,0.479,0.215,0.479,0.48v5.361c0,0.266-0.215,0.48-0.479,0.48H102.528 M235.701,7.946c-0.266,0-0.48-0.215-0.48-0.48V0.479
	c0-0.265,0.215-0.479,0.48-0.479h7.195c0.264,0,0.479,0.214,0.479,0.479v6.986c0,0.265-0.215,0.48-0.479,0.48H235.701"/>
<polygon fill-rule="evenodd" clip-rule="evenodd" fill="#FFFFFF" points="0,4.851 47.545,4.851 47.545,13.491 0,13.491 0,4.851 "/>
<polygon fill-rule="evenodd" clip-rule="evenodd" fill="#FFFFFF" points="0,16.371 33.054,16.371 33.054,25.011 0,25.011 0,16.371 
	"/>
<polygon fill-rule="evenodd" clip-rule="evenodd" fill="#FFFFFF" points="0,27.891 59.04,27.891 59.04,36.531 0,36.531 0,27.891 "/>
<path fill="#FFFFFF" d="M0,48.051v-8.639h43.109v8.639H0L0,48.051z M0,48.051v-8.639h43.109v8.639H0L0,48.051z M0,48.051v-8.639
	h43.109v8.639H0L0,48.051z"/>
</svg>
